<svg width="165" height="15" viewBox="0 0 165 15" fill="none" xmlns="http://www.w3.org/2000/svg">
<g clip-path="url(#clip0_114_3651)">
<path d="M152.869 4.01641C152.759 4.01641 152.669 4.10596 152.669 4.21641V5.68346C152.669 5.79392 152.759 5.88346 152.869 5.88346H163.714C163.882 5.88346 163.975 6.07852 163.869 6.20929L161.593 9.02235C161.555 9.06927 161.498 9.09653 161.437 9.09653H152.869C152.759 9.09653 152.669 9.18607 152.669 9.29653V10.7853C152.669 10.8957 152.759 10.9853 152.869 10.9853H164.598C164.763 10.9853 164.857 11.1743 164.757 11.306L162.199 14.6835C162.162 14.7335 162.103 14.7628 162.04 14.7628H149.183C148.631 14.7628 148.183 14.3151 148.183 13.7628V1.23889C148.183 0.686606 148.631 0.238892 149.183 0.238892H164.572C164.738 0.238892 164.832 0.429252 164.731 0.560784L162.134 3.9383C162.097 3.98755 162.038 4.01641 161.976 4.01641H152.869Z" fill="#FF6300"/>
<path d="M143.888 14.6841C143.85 14.7337 143.792 14.7628 143.729 14.7628H131.999C131.447 14.7628 130.999 14.3151 130.999 13.7628V1.23889C130.999 0.686606 131.447 0.238892 131.999 0.238892H135.285C135.395 0.238892 135.485 0.328435 135.485 0.438892V10.7853C135.485 10.8957 135.574 10.9853 135.685 10.9853H146.306C146.472 10.9853 146.566 11.175 146.465 11.3066L143.888 14.6841Z" fill="#FF6300"/>
<path d="M126.62 14.6835C126.582 14.7335 126.523 14.7628 126.46 14.7628H119.278C114.272 14.7628 110.545 11.5932 110.545 7.35974C110.545 3.19144 114.164 0.238892 119.278 0.238892H129.018C129.183 0.238892 129.277 0.427903 129.177 0.559631L126.62 3.93715C126.582 3.98708 126.523 4.01641 126.46 4.01641H119.278C116.483 4.01641 115.009 5.16704 115.009 7.35974C115.009 9.63927 116.591 10.9853 119.278 10.9853H129.018C129.183 10.9853 129.277 11.1743 129.177 11.306L126.62 14.6835Z" fill="#FF6300"/>
<path d="M103.115 14.7628H89.6711C89.5055 14.7628 89.4116 14.5731 89.5121 14.4415L92.0891 11.064C92.1269 11.0144 92.1857 10.9853 92.2481 10.9853H103.245C104.155 10.9853 104.567 10.7031 104.567 10.0518C104.567 9.37875 104.133 9.09653 103.201 9.09653H95.3564C91.8241 9.09653 89.787 7.49 89.787 4.73284C89.787 1.73687 91.8024 0.238892 95.8982 0.238892H108.172C108.337 0.238892 108.431 0.428578 108.331 0.56021L105.754 3.93773C105.716 3.98732 105.657 4.01641 105.595 4.01641H95.5515C94.6196 4.01641 94.1862 4.32035 94.1862 4.94994C94.1862 5.60123 94.6196 5.90517 95.5515 5.90517H103.461C107.059 5.90517 108.966 7.35973 108.966 10.1169C108.966 13.3082 107.145 14.7628 103.115 14.7628Z" fill="#FF6300"/>
<path d="M83.1048 8.42352V0.438891C83.1048 0.328434 83.1943 0.238892 83.3048 0.238892H87.369C87.4794 0.238892 87.569 0.328435 87.569 0.438892V8.42352C87.569 12.9609 84.6434 15.0016 78.1204 15.0016C71.5325 15.0016 68.5636 12.9826 68.5636 8.42352V0.438891C68.5636 0.328434 68.6531 0.238892 68.7636 0.238892H72.8495C72.9599 0.238892 73.0495 0.328435 73.0495 0.438892V8.42352C73.0495 10.486 74.3714 11.2241 78.1204 11.2241C81.8262 11.2241 83.1048 10.486 83.1048 8.42352Z" fill="#FF6300"/>
<path d="M67.9947 14.5072C68.0316 14.6351 67.9357 14.7627 67.8025 14.7627H63.5837C63.4935 14.7627 63.4145 14.7024 63.3908 14.6153L61.2659 6.82356C61.2183 6.64913 60.9821 6.62234 60.8967 6.78169L57.3631 13.3733C56.6913 14.589 55.9978 15.0015 54.6759 15.0015C53.3323 15.0015 52.6388 14.589 51.9887 13.3733L48.5384 6.78554C48.4544 6.62516 48.2175 6.65001 48.1686 6.82433L45.9835 14.6167C45.9593 14.7031 45.8806 14.7627 45.7909 14.7627H41.6594C41.5257 14.7627 41.4297 14.6341 41.4676 14.506L45.1624 2.01902C45.5308 0.738136 46.4626 0 47.7195 0C48.7597 0 49.5832 0.521037 50.1467 1.51969L54.7626 10.1385L59.4002 1.51969C59.9419 0.521037 60.7871 0 61.8273 0C63.0625 0 64.0377 0.781555 64.3845 2.01902L67.9947 14.5072Z" fill="#FF6300"/>
<path d="M30.458 0C37.6527 0 41.0767 2.4098 41.0767 7.48991C41.0767 12.57 37.6527 15.0015 30.458 15.0015C23.2849 15.0015 19.8826 12.5917 19.8826 7.48991C19.8826 2.4098 23.2632 0 30.458 0ZM30.458 3.77752C25.6254 3.77752 24.3468 4.55908 24.3468 7.48991C24.3468 10.4425 25.647 11.224 30.458 11.224C35.3123 11.224 36.5909 10.4425 36.5909 7.48991C36.5909 4.53737 35.3339 3.77752 30.458 3.77752Z" fill="#FF6300"/>
<path d="M4.28588 0.238892C4.39634 0.238892 4.48588 0.328435 4.48588 0.438892V5.18414C4.48588 5.29459 4.57542 5.38414 4.68588 5.38414H12.9109C13.0214 5.38414 13.1109 5.29459 13.1109 5.18414V0.438891C13.1109 0.328434 13.2004 0.238892 13.3109 0.238892H16.5751C17.1274 0.238892 17.5751 0.686607 17.5751 1.23889V13.7628C17.5751 14.3151 17.1274 14.7628 16.5751 14.7628H13.3109C13.2004 14.7628 13.1109 14.6733 13.1109 14.5628V9.36166C13.1109 9.2512 13.0214 9.16166 12.9109 9.16166H4.68588C4.57542 9.16166 4.48588 9.2512 4.48588 9.36166V14.5628C4.48588 14.6733 4.39634 14.7628 4.28588 14.7628H1C0.447715 14.7628 0 14.3151 0 13.7628V1.23889C0 0.686606 0.447715 0.238892 1 0.238892H4.28588Z" fill="#FF6300"/>
</g>
<defs>
<clipPath id="clip0_114_3651">
<rect width="165" height="15.0016" fill="white"/>
</clipPath>
</defs>
</svg>
